<?xml version="1.0" encoding="UTF-8" standalone="no"?>
<svg width="700" height="400" viewBox="0 0 700 400" xmlns="http://www.w3.org/2000/svg">
  <!-- Tło aplikacji -->
  <rect width="700" height="400" fill="#f5f5f5" />
  
  <!-- Pasek nawigacyjny -->
  <rect width="700" height="50" fill="#3498db" />
  <text x="20" y="32" font-family="Arial" font-size="18" fill="white">Trass Recommendation</text>
  
  <!-- Główny panel -->
  <rect x="10" y="60" width="680" height="330" fill="white" stroke="#e0e0e0" stroke-width="1" />
  
  <!-- Nagłówek sekcji -->
  <text x="30" y="85" font-family="Arial" font-weight="bold" font-size="22" fill="#3498db">Rekomendowane trasy dla Ciebie</text>
  
  <!-- Opis rekomendacji -->
  <text x="30" y="115" font-family="Arial" font-size="14" fill="#555">Na podstawie Twoich preferencji i historii, wybraliśmy dla Ciebie następujące trasy:</text>
  
  <!-- Rekomendacje tras -->
  <rect x="30" y="130" width="640" height="80" fill="#e0f4ff" stroke="#3498db" stroke-width="1" rx="5" ry="5" />
  <rect x="40" y="140" width="60" height="60" fill="#3498db" rx="5" ry="5" />
  <text x="60" y="175" font-family="Arial" font-weight="bold" font-size="22" fill="white">1</text>
  <text x="120" y="160" font-family="Arial" font-weight="bold" font-size="16" fill="#3498db">Trasa leśna "Zielony szlak"</text>
  <text x="120" y="185" font-family="Arial" font-size="14" fill="#555">Dopasowanie: 98% • Dystans: 8.2 km • Trudność: Średnia • Teren: Las</text>
  
  <rect x="30" y="220" width="640" height="80" fill="#f9f9f9" stroke="#e0e0e0" stroke-width="1" rx="5" ry="5" />
  <rect x="40" y="230" width="60" height="60" fill="#5dade2" rx="5" ry="5" />
  <text x="60" y="265" font-family="Arial" font-weight="bold" font-size="22" fill="white">2</text>
  <text x="120" y="250" font-family="Arial" font-weight="bold" font-size="16" fill="#3498db">Trasa miejska "Stare Miasto"</text>
  <text x="120" y="275" font-family="Arial" font-size="14" fill="#555">Dopasowanie: 85% • Dystans: 5.0 km • Trudność: Łatwa • Teren: Miasto</text>
  
  <rect x="30" y="310" width="640" height="80" fill="#f9f9f9" stroke="#e0e0e0" stroke-width="1" rx="5" ry="5" />
  <rect x="40" y="320" width="60" height="60" fill="#85c1e9" rx="5" ry="5" />
  <text x="60" y="355" font-family="Arial" font-weight="bold" font-size="22" fill="white">3</text>
  <text x="120" y="340" font-family="Arial" font-weight="bold" font-size="16" fill="#3498db">Trasa górska "Orla Perć"</text>
  <text x="120" y="365" font-family="Arial" font-size="14" fill="#555">Dopasowanie: 72% • Dystans: 12.5 km • Trudność: Trudna • Teren: Góry</text>
</svg> 